# xmcd
#
# Track frame offsets:
#	150
#	13652
#	36975
#	59468
#	76452
#	96389
#	110458
#	126549
#	160581
#	176683
#	195589
#	217588
#	239336
#	262131
#	284474
#	290192
#
# Disc length: 4144 seconds
#
# Revision: 1
# Processed by: cddbd v1.5.2PL0 Copyright (c) Steve Scherf et al.
# Submitted via: audiograbber 1.83.01
#
DISCID=f2102e10
DTITLE=Harris And Ryden - Live
DYEAR=2004
DGENRE=Country Rock
TTITLE0=Beggar´s Dimes
TTITLE1=Lazy Afternoon
TTITLE2=Cold Wyoming Snow
TTITLE3=Peace Of The Gypsy
TTITLE4=Broken Land
TTITLE5=All The Wrong Things
TTITLE6=The Real Ones
TTITLE7=Shiny Cars
TTITLE8=Wild Horses On The Ceiling
TTITLE9=Paycheck To Paycheck
TTITLE10=Reasons To Hold On
TTITLE11=Texas Bound Again
TTITLE12=Southern Plains
TTITLE13=Dead Flowers
TTITLE14=The H and R Band
TTITLE15=This Hard Town
EXTD=
EXTT0=
EXTT1=
EXTT2=
EXTT3=
EXTT4=
EXTT5=
EXTT6=
EXTT7=
EXTT8=
EXTT9=
EXTT10=
EXTT11=
EXTT12=
EXTT13=
EXTT14=
EXTT15=
PLAYORDER=
